<svg xmlns="http://www.w3.org/2000/svg" xmlns:xlink="http://www.w3.org/1999/xlink" width="200" zoomAndPan="magnify" viewBox="0 0 150 149.999998" height="200" preserveAspectRatio="xMidYMid meet" version="1.0"><defs><g/></defs><path fill="#005000" d="M 79.730469 2.796875 C 36.113281 0.0078125 0.0078125 36.113281 2.796875 79.730469 C 5.101562 115.78125 34.21875 144.898438 70.273438 147.207031 C 113.886719 149.996094 149.996094 113.886719 147.207031 70.273438 C 144.898438 34.21875 115.78125 5.101562 79.730469 2.796875 Z M 107.761719 110.902344 C 110.609375 101.125 112.304688 89.878906 112.535156 77.78125 L 141.722656 77.78125 C 141.082031 93.292969 135.125 107.449219 125.632812 118.484375 C 121.277344 115.433594 115.191406 112.851562 107.761719 110.902344 Z M 24.367188 118.484375 C 14.875 107.449219 8.917969 93.292969 8.28125 77.78125 L 37.464844 77.78125 C 37.695312 89.878906 39.390625 101.125 42.238281 110.902344 C 34.808594 112.855469 28.71875 115.433594 24.367188 118.484375 Z M 42.222656 39.144531 C 39.386719 48.914062 37.691406 60.140625 37.464844 72.21875 L 8.28125 72.21875 C 8.917969 56.78125 14.816406 42.6875 24.230469 31.671875 C 28.660156 34.675781 34.789062 37.21875 42.222656 39.144531 Z M 72.21875 72.21875 L 43.03125 72.21875 C 43.269531 60.699219 44.984375 49.828125 47.78125 40.425781 C 55.304688 41.941406 63.644531 42.804688 72.21875 42.960938 Z M 72.21875 77.78125 L 72.21875 107.039062 C 63.628906 107.195312 55.285156 108.074219 47.792969 109.609375 C 44.988281 100.195312 43.273438 89.3125 43.03125 77.78125 Z M 77.78125 77.78125 L 106.96875 77.78125 C 106.730469 89.3125 105.011719 100.195312 102.207031 109.609375 C 94.710938 108.074219 86.371094 107.195312 77.78125 107.039062 Z M 77.78125 72.21875 L 77.78125 42.960938 C 86.355469 42.804688 94.695312 41.941406 102.21875 40.421875 C 105.015625 49.828125 106.730469 60.699219 106.96875 72.21875 Z M 77.78125 37.394531 L 77.78125 8.492188 C 86.921875 10.226562 95.101562 20.375 100.464844 35.105469 C 93.46875 36.46875 85.734375 37.246094 77.78125 37.394531 Z M 72.21875 8.492188 L 72.21875 37.394531 C 64.265625 37.246094 56.53125 36.46875 49.535156 35.105469 C 54.898438 20.375 63.078125 10.222656 72.21875 8.492188 Z M 72.21875 112.605469 L 72.21875 141.511719 C 63.082031 139.777344 54.910156 129.636719 49.546875 114.925781 C 56.515625 113.542969 64.25 112.757812 72.21875 112.605469 Z M 77.78125 141.507812 L 77.78125 112.605469 C 85.75 112.757812 93.480469 113.542969 100.453125 114.925781 C 95.089844 129.636719 86.917969 139.777344 77.78125 141.507812 Z M 112.535156 72.21875 C 112.308594 60.140625 110.613281 48.914062 107.777344 39.144531 C 115.210938 37.214844 121.339844 34.675781 125.769531 31.671875 C 135.183594 42.6875 141.082031 56.78125 141.71875 72.21875 Z M 121.921875 27.523438 C 118.027344 29.992188 112.574219 32.167969 106.078125 33.835938 C 102.585938 23.960938 97.84375 15.925781 92.257812 10.480469 C 103.617188 13.523438 113.792969 19.488281 121.921875 27.523438 Z M 43.925781 33.835938 C 37.425781 32.167969 31.976562 29.992188 28.078125 27.523438 C 36.207031 19.488281 46.382812 13.523438 57.746094 10.484375 C 52.15625 15.925781 47.414062 23.960938 43.925781 33.835938 Z M 28.21875 122.613281 C 32.03125 120.109375 37.441406 117.898438 43.941406 116.210938 C 47.429688 126.0625 52.167969 134.082031 57.742188 139.519531 C 46.449219 136.492188 36.328125 130.578125 28.21875 122.613281 Z M 106.058594 116.210938 C 112.554688 117.898438 117.96875 120.109375 121.78125 122.613281 C 113.671875 130.578125 103.554688 136.496094 92.257812 139.519531 C 97.832031 134.082031 102.566406 126.0625 106.058594 116.210938 Z M 106.058594 116.210938 " fill-opacity="1" fill-rule="nonzero"/><g fill="#005000" fill-opacity="0.4"><g transform="translate(16.420293, 114.678046)"><g><path d="M 25.574219 -37.503906 L 34.0625 -37.503906 L 34.0625 -19.382812 C 34.0625 -17.890625 32.800781 -16.746094 31.308594 -16.746094 L 19.152344 -16.746094 C 17.777344 -16.746094 16.628906 -17.890625 16.628906 -19.265625 L 16.628906 -67.550781 C 16.628906 -69.042969 17.777344 -70.304688 19.265625 -70.304688 L 31.195312 -70.304688 C 32.800781 -70.304688 34.0625 -69.042969 34.0625 -67.4375 L 34.0625 -63.421875 L 50.578125 -63.421875 L 50.578125 -67.4375 C 50.578125 -78.21875 41.859375 -86.816406 31.195312 -86.816406 L 19.265625 -86.816406 C 8.601562 -86.816406 0 -78.21875 0 -67.550781 L 0 -19.265625 C 0 -8.714844 8.601562 -0.113281 19.152344 -0.113281 L 31.308594 -0.113281 C 41.976562 -0.113281 50.578125 -8.832031 50.578125 -19.382812 L 50.691406 -54.132812 L 25.574219 -54.132812 Z M 25.574219 -37.503906 "/></g></g></g><g fill="#005000" fill-opacity="0.4"><g transform="translate(87.40738, 114.678046)"><g><path d="M 33.949219 -86.933594 L 33.949219 -54.132812 L 16.628906 -54.132812 L 16.628906 -86.933594 L 0 -86.933594 L 0 -0.113281 L 16.628906 -0.113281 L 16.628906 -37.503906 L 33.949219 -37.503906 L 33.949219 -0.113281 L 50.578125 -0.113281 L 50.578125 -86.933594 Z M 33.949219 -86.933594 "/></g></g></g><g fill="#ffffff" fill-opacity="1"><g transform="translate(11.351522, 109.609277)"><g><path d="M 25.574219 -37.503906 L 34.0625 -37.503906 L 34.0625 -19.382812 C 34.0625 -17.890625 32.800781 -16.746094 31.308594 -16.746094 L 19.152344 -16.746094 C 17.777344 -16.746094 16.628906 -17.890625 16.628906 -19.265625 L 16.628906 -67.550781 C 16.628906 -69.042969 17.777344 -70.304688 19.265625 -70.304688 L 31.195312 -70.304688 C 32.800781 -70.304688 34.0625 -69.042969 34.0625 -67.4375 L 34.0625 -63.421875 L 50.578125 -63.421875 L 50.578125 -67.4375 C 50.578125 -78.21875 41.859375 -86.816406 31.195312 -86.816406 L 19.265625 -86.816406 C 8.601562 -86.816406 0 -78.21875 0 -67.550781 L 0 -19.265625 C 0 -8.714844 8.601562 -0.113281 19.152344 -0.113281 L 31.308594 -0.113281 C 41.976562 -0.113281 50.578125 -8.832031 50.578125 -19.382812 L 50.691406 -54.132812 L 25.574219 -54.132812 Z M 25.574219 -37.503906 "/></g></g></g><g fill="#ffffff" fill-opacity="1"><g transform="translate(82.338609, 109.609277)"><g><path d="M 33.949219 -86.933594 L 33.949219 -54.132812 L 16.628906 -54.132812 L 16.628906 -86.933594 L 0 -86.933594 L 0 -0.113281 L 16.628906 -0.113281 L 16.628906 -37.503906 L 33.949219 -37.503906 L 33.949219 -0.113281 L 50.578125 -0.113281 L 50.578125 -86.933594 Z M 33.949219 -86.933594 "/></g></g></g></svg>